<?xml version="1.0" encoding="utf-8"?>
<!-- Generator: Adobe Illustrator 21.1.0, SVG Export Plug-In . SVG Version: 6.00 Build 0)  -->
<svg version="1.1" id="Layer_1" xmlns="http://www.w3.org/2000/svg" xmlns:xlink="http://www.w3.org/1999/xlink" x="0px" y="0px"
	 viewBox="0 0 192.7 230.7" style="enable-background:new 0 0 192.7 230.7;" xml:space="preserve">
<style type="text/css">
	.st0{fill:#FFFFFF;}
</style>
<g>
	<path class="st0" d="M120.6,205.7l-0.2-44.4l0.3,0c0.7,0,1.4,0,2.1-0.1l2.1,44.4c-1.3,0.1-2.7,0.1-4,0.1L120.6,205.7z"/>
	<path class="st0" d="M117,205.7c-1.4-0.1-2.9-0.1-4.3-0.3l3.7-44.3c0.7,0.1,1.5,0.1,2.3,0.1L117,205.7z"/>
	<path class="st0" d="M130.7,225.8l-3.8-44.3c0.8-0.1,1.5-0.1,2.3-0.2l5.9,44C133.6,225.5,132.1,225.7,130.7,225.8z"/>
	<path class="st0" d="M109.1,205c-1.4-0.2-2.9-0.4-4.3-0.6l7.4-43.8c0.7,0.1,1.5,0.2,2.2,0.3L109.1,205z"/>
	<path class="st0" d="M136.2,204.4l-7.5-43.8c0.7-0.1,1.5-0.3,2.2-0.4l9.6,43.4C139.1,203.8,137.6,204.1,136.2,204.4z"/>
	<path class="st0" d="M97.7,218.8c-1.4-0.3-2.8-0.6-4.2-1l11.1-43c0.7,0.2,1.5,0.4,2.2,0.5L97.7,218.8z"/>
	<path class="st0" d="M143.9,202.7l-11.2-43c0.7-0.2,1.4-0.4,2.2-0.6l13.2,42.4C146.7,201.9,145.3,202.3,143.9,202.7z"/>
	<path class="st0" d="M87,222.3c-1.4-0.4-2.8-0.9-4.2-1.4L97.6,179c0.7,0.2,1.4,0.5,2.2,0.7L87,222.3z"/>
	<path class="st0" d="M151.5,200.4l-14.9-41.9c0.7-0.3,1.4-0.5,2.1-0.8l16.8,41.1C154.2,199.4,152.8,199.9,151.5,200.4z"/>
	<path class="st0" d="M86.2,199.2c-1.3-0.5-2.7-1.1-4-1.7l18.3-40.5c0.7,0.3,1.4,0.6,2.1,0.9L86.2,199.2z"/>
	<path class="st0" d="M158.8,197.4L140.4,157c0.7-0.3,1.4-0.6,2-1l20.2,39.5C161.4,196.2,160.1,196.8,158.8,197.4z"/>
	<path class="st0" d="M79,196c-1.3-0.6-2.6-1.3-3.8-2l21.6-38.8c0.7,0.4,1.3,0.7,2,1.1L79,196z"/>
	<path class="st0" d="M165.8,193.9l-21.8-38.7c0.7-0.4,1.3-0.8,2-1.2l23.5,37.7C168.3,192.4,167.1,193.2,165.8,193.9z"/>
	<path class="st0" d="M72.1,192.2c-1.2-0.7-2.5-1.5-3.7-2.3L93.3,153c0.6,0.4,1.3,0.8,1.9,1.2L72.1,192.2z"/>
	<path class="st0" d="M178.4,197.9l-24.9-36.8c0.6-0.4,1.2-0.9,1.9-1.3l26.6,35.6C180.8,196.3,179.6,197.1,178.4,197.9z"/>
	<path class="st0" d="M65.5,187.8c-1.2-0.8-2.3-1.7-3.4-2.6l27.9-34.6c0.6,0.5,1.2,0.9,1.8,1.4L65.5,187.8z"/>
	<path class="st0" d="M178.9,185l-28-34.5c0.6-0.5,1.2-1,1.7-1.5l29.5,33.2C181.1,183.2,180,184.1,178.9,185z"/>
	<path class="st0" d="M59.3,182.9c-1.1-0.9-2.2-1.9-3.2-2.9l30.7-32.1c0.5,0.5,1.1,1,1.7,1.5L59.3,182.9z"/>
	<path class="st0" d="M184.8,179.8l-30.8-32c0.5-0.5,1.1-1.1,1.6-1.6l32.2,30.6C186.8,177.8,185.8,178.8,184.8,179.8z"/>
	<path class="st0" d="M53.6,177.5c-1-1-2-2.1-2.9-3.2L84,144.9c0.5,0.6,1,1.1,1.5,1.7L53.6,177.5z"/>
	<path class="st0" d="M27.4,187.9c-0.9-1.1-1.8-2.3-2.7-3.4L60.4,158c0.4,0.6,0.9,1.2,1.4,1.8L27.4,187.9z"/>
	<path class="st0" d="M43.7,165.3c-0.8-1.2-1.6-2.4-2.4-3.6l37.8-23.4c0.4,0.6,0.8,1.3,1.2,1.9L43.7,165.3z"/>
	<path class="st0" d="M39.5,158.6c-0.7-1.2-1.4-2.5-2.1-3.8L77,134.7c0.3,0.7,0.7,1.3,1.1,2L39.5,158.6z"/>
	<path class="st0" d="M35.9,151.6c-0.6-1.3-1.2-2.7-1.7-4l41.2-16.7c0.3,0.7,0.6,1.4,0.9,2.1L35.9,151.6z"/>
	<path class="st0" d="M32.9,144.3c-0.5-1.4-1-2.8-1.4-4.1L74,127.1c0.2,0.7,0.5,1.4,0.7,2.1L32.9,144.3z"/>
	<path class="st0" d="M30.5,136.7c-0.4-1.4-0.7-2.8-1-4.2l43.4-9.4c0.2,0.7,0.3,1.5,0.5,2.2L30.5,136.7z"/>
	<path class="st0" d="M7,132.4c-0.3-1.4-0.5-2.9-0.7-4.3l44.1-5.7c0.1,0.7,0.2,1.5,0.3,2.2L7,132.4z"/>
	<path class="st0" d="M27.8,121.2c-0.1-1.4-0.2-2.9-0.3-4.3l44.4-2c0,0.8,0.1,1.5,0.2,2.3L27.8,121.2z"/>
	<path class="st0" d="M27.4,113.5l0-0.3c0-0.3,0-0.6,0-0.9c0-1.1,0-2.2,0.1-3.3l44.4,1.7c0,0.6,0,1.2,0,1.7l0,0.8l0,0.3l-20.6-0.5
		L27.4,113.5z"/>
	<path class="st0" d="M72,108.9l-44.3-3.4c0.1-1.4,0.3-2.9,0.4-4.3l44.1,5.5C72.1,107.4,72,108.2,72,108.9z"/>
	<path class="st0" d="M63.2,103.2L19.4,96c0.2-1.4,0.5-2.9,0.8-4.3l43.5,9.2C63.5,101.7,63.3,102.4,63.2,103.2z"/>
	<path class="st0" d="M73.3,100.8L30.2,89.9c0.4-1.4,0.7-2.8,1.2-4.2l42.5,12.9C73.7,99.4,73.5,100.1,73.3,100.8z"/>
	<path class="st0" d="M74.5,96.9l-42-14.5c0.5-1.4,1-2.7,1.5-4.1l41.2,16.5C75,95.5,74.7,96.2,74.5,96.9z"/>
	<path class="st0" d="M76,93.1L35.4,75c0.6-1.3,1.2-2.6,1.9-3.9L77,91C76.6,91.7,76.3,92.4,76,93.1z"/>
	<path class="st0" d="M77.8,89.4L38.9,67.9c0.7-1.3,1.4-2.5,2.2-3.8L79,87.4C78.6,88,78.2,88.7,77.8,89.4z"/>
	<path class="st0" d="M67.4,76.9L30.4,52.3c0.8-1.2,1.6-2.4,2.5-3.6l35.7,26.4C68.2,75.7,67.8,76.3,67.4,76.9z"/>
	<path class="st0" d="M77.7,78.5L42.9,50.8c0.9-1.1,1.8-2.2,2.8-3.3l33.4,29.3C78.6,77.4,78.1,78,77.7,78.5z"/>
	<path class="st0" d="M78.2,72.5L45.9,42c1-1,2-2.1,3.1-3.1l30.8,32C79.2,71.4,78.7,72,78.2,72.5z"/>
	<path class="st0" d="M153.9,77.6c-0.5-0.5-1.1-1-1.7-1.5l29.1-33.5c1.1,0.9,2.2,1.9,3.2,2.9L153.9,77.6z"/>
	<path class="st0" d="M88.1,76.5L58.5,43.4c1.1-1,2.2-1.9,3.3-2.8l28,34.5C89.2,75.5,88.6,76,88.1,76.5z"/>
	<path class="st0" d="M150.8,74.9c-0.6-0.5-1.2-0.9-1.8-1.4l26.2-35.9c1.2,0.9,2.3,1.7,3.5,2.7L150.8,74.9z"/>
	<path class="st0" d="M91.3,73.9L64.6,38.4c1.2-0.9,2.3-1.7,3.5-2.5l25,36.7C92.5,73,91.9,73.5,91.3,73.9z"/>
	<path class="st0" d="M150.4,68c-0.6-0.4-1.3-0.8-1.9-1.2l23.1-38c1.2,0.7,2.5,1.5,3.7,2.3L150.4,68z"/>
	<path class="st0" d="M81.7,49.7L58.1,12.1c1.2-0.8,2.5-1.5,3.7-2.2l21.8,38.7C83,48.9,82.4,49.3,81.7,49.7z"/>
	<path class="st0" d="M143.9,70.3c-0.7-0.4-1.3-0.7-2-1.1l19.8-39.8c1.3,0.6,2.6,1.3,3.9,2L143.9,70.3z"/>
	<path class="st0" d="M98.2,69.5L78,30c1.3-0.7,2.6-1.3,3.9-1.9l18.4,40.4C99.6,68.9,98.9,69.2,98.2,69.5z"/>
	<path class="st0" d="M144.7,57.9c-0.7-0.3-1.4-0.6-2.1-0.9l16.3-41.3c1.3,0.5,2.7,1.1,4,1.7L144.7,57.9z"/>
	<path class="st0" d="M102,67.8L85.1,26.7c1.3-0.5,2.7-1.1,4.1-1.6L104.1,67C103.4,67.3,102.7,67.5,102,67.8z"/>
	<path class="st0" d="M136.4,66.9c-0.7-0.3-1.4-0.5-2.2-0.7L147,23.7c1.4,0.4,2.8,0.9,4.1,1.3L136.4,66.9z"/>
	<path class="st0" d="M103.9,59.6L90.6,17.3c1.4-0.4,2.8-0.8,4.2-1.2l11.3,43C105.3,59.2,104.6,59.4,103.9,59.6z"/>
	<path class="st0" d="M132.5,65.7c-0.7-0.2-1.5-0.4-2.2-0.5l9-43.5c1.4,0.3,2.8,0.6,4.2,1L132.5,65.7z"/>
	<path class="st0" d="M109.8,65.4L100.2,22c1.4-0.3,2.9-0.6,4.3-0.8l7.5,43.8C111.3,65.1,110.5,65.2,109.8,65.4z"/>
	<path class="st0" d="M128.5,64.9c-0.7-0.1-1.5-0.2-2.2-0.3l5.3-44.1c1.4,0.2,2.9,0.4,4.3,0.6L128.5,64.9z"/>
	<path class="st0" d="M113.8,64.7l-5.9-44c1.4-0.2,2.9-0.3,4.3-0.5l3.8,44.3C115.4,64.5,114.6,64.6,113.8,64.7z"/>
	<path class="st0" d="M124.4,64.4c-0.8-0.1-1.5-0.1-2.3-0.1l1.5-44.4c1.4,0.1,2.9,0.1,4.3,0.3L124.4,64.4z"/>
	<path class="st0" d="M117.6,48.6l-2.2-44.4c1.3-0.1,2.7-0.1,4-0.1l0.4,0l-0.2,44.4l0.1,0C119,48.5,118.3,48.6,117.6,48.6z"/>
</g>
</svg>
