<?xml version="1.0" encoding="utf-8"?>
<!-- Generator: Adobe Illustrator 21.1.0, SVG Export Plug-In . SVG Version: 6.00 Build 0)  -->
<svg version="1.1" id="Layer_1" xmlns="http://www.w3.org/2000/svg" xmlns:xlink="http://www.w3.org/1999/xlink" x="0px" y="0px"
	 viewBox="0 0 1127 638" style="enable-background:new 0 0 1127 638;" xml:space="preserve">
<style type="text/css">
	.st0{fill:#FFFFFF;}
</style>
<g>
	<path class="st0" d="M381.4,535l-0.5-106.4h0.7c1.7,0,3.4,0,5-0.2l5,106.4c-3.1,0.2-6.5,0.2-9.6,0.2H381.4z"/>
	<path class="st0" d="M372.8,535c-3.4-0.2-6.9-0.2-10.3-0.7l8.9-106.2c1.7,0.2,3.6,0.2,5.5,0.2L372.8,535z"/>
	<path class="st0" d="M405.6,583.1L396.5,477c1.9-0.2,3.6-0.2,5.5-0.5l14.1,105.4C412.6,582.4,409,582.9,405.6,583.1z"/>
	<path class="st0" d="M353.9,533.3c-3.4-0.5-6.9-1-10.3-1.4l17.7-105c1.7,0.2,3.6,0.5,5.3,0.7L353.9,533.3z"/>
	<path class="st0" d="M418.8,531.9l-18-105c1.7-0.2,3.6-0.7,5.3-1l23,104C425.7,530.4,422.1,531.1,418.8,531.9z"/>
	<path class="st0" d="M326.5,566.4c-3.4-0.7-6.7-1.4-10.1-2.4l26.6-103c1.7,0.5,3.6,1,5.3,1.2L326.5,566.4z"/>
	<path class="st0" d="M437.2,527.8l-26.8-103c1.7-0.5,3.4-1,5.3-1.4l31.6,101.6C444,525.9,440.6,526.8,437.2,527.8z"/>
	<path class="st0" d="M300.9,574.8c-3.4-1-6.7-2.2-10.1-3.4L326.3,471c1.7,0.5,3.4,1.2,5.3,1.7L300.9,574.8z"/>
	<path class="st0" d="M455.5,522.3l-35.7-100.4c1.7-0.7,3.4-1.2,5-1.9l40.3,98.5C461.9,519.9,458.6,521.1,455.5,522.3z"/>
	<path class="st0" d="M299,519.4c-3.1-1.2-6.5-2.6-9.6-4.1l43.9-97c1.7,0.7,3.4,1.4,5,2.2L299,519.4z"/>
	<path class="st0" d="M472.9,515.1l-44.1-96.8c1.7-0.7,3.4-1.4,4.8-2.4l48.4,94.7C479.2,512.2,476.1,513.7,472.9,515.1z"/>
	<path class="st0" d="M281.7,511.7c-3.1-1.4-6.2-3.1-9.1-4.8l51.8-93c1.7,1,3.1,1.7,4.8,2.6L281.7,511.7z"/>
	<path class="st0" d="M489.7,506.7L437.5,414c1.7-1,3.1-1.9,4.8-2.9l56.3,90.3C495.7,503.1,492.8,505,489.7,506.7z"/>
	<path class="st0" d="M265.2,502.6c-2.9-1.7-6-3.6-8.9-5.5l59.7-88.4c1.4,1,3.1,1.9,4.6,2.9L265.2,502.6z"/>
	<path class="st0" d="M519.9,516.3l-59.7-88.2c1.4-1,2.9-2.2,4.6-3.1l63.7,85.3C525.7,512.5,522.8,514.4,519.9,516.3z"/>
	<path class="st0" d="M249.4,492.1c-2.9-1.9-5.5-4.1-8.1-6.2l66.9-82.9c1.4,1.2,2.9,2.2,4.3,3.4L249.4,492.1z"/>
	<path class="st0" d="M521.1,485.4L454,402.7c1.4-1.2,2.9-2.4,4.1-3.6l70.7,79.6C526.4,481.1,523.7,483.2,521.1,485.4z"/>
	<path class="st0" d="M234.5,480.3c-2.6-2.2-5.3-4.6-7.7-6.9l73.6-76.9c1.2,1.2,2.6,2.4,4.1,3.6L234.5,480.3z"/>
	<path class="st0" d="M535.2,472.9l-73.8-76.7c1.2-1.2,2.6-2.6,3.8-3.8l77.2,73.3C540,468.1,537.6,470.5,535.2,472.9z"/>
	<path class="st0" d="M220.9,467.4c-2.4-2.4-4.8-5-6.9-7.7l79.8-70.4c1.2,1.4,2.4,2.6,3.6,4.1L220.9,467.4z"/>
	<path class="st0" d="M158.1,492.3c-2.2-2.6-4.3-5.5-6.5-8.1l85.5-63.5c1,1.4,2.2,2.9,3.4,4.3L158.1,492.3z"/>
	<path class="st0" d="M197.1,438.2c-1.9-2.9-3.8-5.8-5.8-8.6l90.6-56.1c1,1.4,1.9,3.1,2.9,4.6L197.1,438.2z"/>
	<path class="st0" d="M187.1,422.1c-1.7-2.9-3.4-6-5-9.1l94.9-48.2c0.7,1.7,1.7,3.1,2.6,4.8L187.1,422.1z"/>
	<path class="st0" d="M178.5,405.3c-1.4-3.1-2.9-6.5-4.1-9.6l98.7-40c0.7,1.7,1.4,3.4,2.2,5L178.5,405.3z"/>
	<path class="st0" d="M171.3,387.9c-1.2-3.4-2.4-6.7-3.4-9.8l101.8-31.4c0.5,1.7,1.2,3.4,1.7,5L171.3,387.9z"/>
	<path class="st0" d="M165.5,369.6c-1-3.4-1.7-6.7-2.4-10.1l104-22.5c0.5,1.7,0.7,3.6,1.2,5.3L165.5,369.6z"/>
	<path class="st0" d="M109.2,359.3c-0.7-3.4-1.2-6.9-1.7-10.3l105.7-13.7c0.2,1.7,0.5,3.6,0.7,5.3L109.2,359.3z"/>
	<path class="st0" d="M159,332.5c-0.2-3.4-0.5-6.9-0.7-10.3l106.4-4.8c0,1.9,0.2,3.6,0.5,5.5L159,332.5z"/>
	<path class="st0" d="M158.1,314.1v-0.7c0-0.7,0-1.4,0-2.2c0-2.6,0-5.3,0.2-7.9l106.4,4.1c0,1.4,0,2.9,0,4.1v1.9v0.7l-49.4-1.2
		L158.1,314.1z"/>
	<path class="st0" d="M265,303l-106.2-8.1c0.2-3.4,0.7-6.9,1-10.3l105.7,13.2C265.2,299.4,265,301.4,265,303z"/>
	<path class="st0" d="M243.9,289.4l-105-17.3c0.5-3.4,1.2-6.9,1.9-10.3l104.2,22C244.6,285.8,244.1,287.5,243.9,289.4z"/>
	<path class="st0" d="M268.1,283.6l-103.3-26.1c1-3.4,1.7-6.7,2.9-10.1l101.8,30.9C269,280.3,268.5,281.9,268.1,283.6z"/>
	<path class="st0" d="M270.9,274.3l-100.6-34.7c1.2-3.4,2.4-6.5,3.6-9.8l98.7,39.5C272.1,270.9,271.4,272.6,270.9,274.3z"/>
	<path class="st0" d="M274.5,265.2l-97.3-43.4c1.4-3.1,2.9-6.2,4.6-9.3l95.1,47.7C276,261.8,275.3,263.5,274.5,265.2z"/>
	<path class="st0" d="M278.9,256.3l-93.2-51.5c1.7-3.1,3.4-6,5.3-9.1l90.8,55.8C280.8,252.9,279.8,254.6,278.9,256.3z"/>
	<path class="st0" d="M253.9,226.3l-88.7-58.9c1.9-2.9,3.8-5.8,6-8.6l85.5,63.3C255.8,223.5,254.9,224.9,253.9,226.3z"/>
	<path class="st0" d="M278.6,230.2l-83.4-66.4c2.2-2.6,4.3-5.3,6.7-7.9l80,70.2C280.8,227.5,279.6,229,278.6,230.2z"/>
	<path class="st0" d="M279.8,215.8l-77.4-73.1c2.4-2.4,4.8-5,7.4-7.4l73.8,76.7C282.2,213.2,281,214.6,279.8,215.8z"/>
	<path class="st0" d="M461.2,228c-1.2-1.2-2.6-2.4-4.1-3.6l69.7-80.3c2.6,2.2,5.3,4.6,7.7,6.9L461.2,228z"/>
	<path class="st0" d="M303.5,225.4l-70.9-79.3c2.6-2.4,5.3-4.6,7.9-6.7l67.1,82.7C306.2,223,304.7,224.2,303.5,225.4z"/>
	<path class="st0" d="M453.8,221.6c-1.4-1.2-2.9-2.2-4.3-3.4l62.8-86c2.9,2.2,5.5,4.1,8.4,6.5L453.8,221.6z"/>
	<path class="st0" d="M311.2,219.2l-64-85.1c2.9-2.2,5.5-4.1,8.4-6l59.9,87.9C314.1,217,312.6,218.2,311.2,219.2z"/>
	<path class="st0" d="M452.8,205c-1.4-1-3.1-1.9-4.6-2.9l55.4-91.1c2.9,1.7,6,3.6,8.9,5.5L452.8,205z"/>
	<path class="st0" d="M288.2,161.2l-56.6-90.1c2.9-1.9,6-3.6,8.9-5.3l52.2,92.7C291.3,159.3,289.9,160.2,288.2,161.2z"/>
	<path class="st0" d="M437.2,210.5c-1.7-1-3.1-1.7-4.8-2.6l47.4-95.4c3.1,1.4,6.2,3.1,9.3,4.8L437.2,210.5z"/>
	<path class="st0" d="M327.7,208.6L279.3,114c3.1-1.7,6.2-3.1,9.3-4.6l44.1,96.8C331.1,207.2,329.4,207.9,327.7,208.6z"/>
	<path class="st0" d="M439.2,180.8c-1.7-0.7-3.4-1.4-5-2.2l39.1-99c3.1,1.2,6.5,2.6,9.6,4.1L439.2,180.8z"/>
	<path class="st0" d="M336.8,204.5l-40.5-98.5c3.1-1.2,6.5-2.6,9.8-3.8l35.7,100.4C340.2,203.3,338.5,203.8,336.8,204.5z"/>
	<path class="st0" d="M419.3,202.4c-1.7-0.7-3.4-1.2-5.3-1.7l30.7-101.8c3.4,1,6.7,2.2,9.8,3.1L419.3,202.4z"/>
	<path class="st0" d="M341.4,184.9L309.5,83.5c3.4-1,6.7-1.9,10.1-2.9l27.1,103C344.7,183.9,343.1,184.4,341.4,184.9z"/>
	<path class="st0" d="M409.9,199.5c-1.7-0.5-3.6-1-5.3-1.2l21.6-104.2c3.4,0.7,6.7,1.4,10.1,2.4L409.9,199.5z"/>
	<path class="st0" d="M355.5,198.8l-23-104c3.4-0.7,6.9-1.4,10.3-1.9l18,105C359.1,198.1,357.2,198.3,355.5,198.8z"/>
	<path class="st0" d="M400.3,197.6c-1.7-0.2-3.6-0.5-5.3-0.7l12.7-105.7c3.4,0.5,6.9,1,10.3,1.4L400.3,197.6z"/>
	<path class="st0" d="M365.1,197.1L351,91.7c3.4-0.5,6.9-0.7,10.3-1.2l9.1,106.2C369,196.6,367,196.9,365.1,197.1z"/>
	<path class="st0" d="M390.5,196.4c-1.9-0.2-3.6-0.2-5.5-0.2l3.6-106.4c3.4,0.2,6.9,0.2,10.3,0.7L390.5,196.4z"/>
	<path class="st0" d="M374.2,158.5L369,52.1c3.1-0.2,6.5-0.2,9.6-0.2h1L379,158.3h0.2C377.6,158.3,375.9,158.5,374.2,158.5z"/>
</g>
<g>
	<path class="st0" d="M443.5,353.3c-23.1,0-42.2-18.6-42.2-41.8c0-23.5,18.9-42.2,42.2-42.2c23.4,0,42.2,18.8,42.2,42.2
		C485.7,334.7,466.6,353.3,443.5,353.3z M443.5,283.2c-15.5,0-27.3,13-27.3,28.2c0,15.1,12,27.9,27.3,27.9s27.3-12.9,27.3-27.9
		C470.7,296.2,459,283.2,443.5,283.2z"/>
	<path class="st0" d="M544.7,351.7L511,293h-0.2v58.7h-15v-80.8h17l33.4,58.7h0.2v-58.7h15v80.8L544.7,351.7L544.7,351.7z"/>
	<path class="st0" d="M621.4,346.4c-7.7,4.3-18.1,5.2-26.8,5.2h-18.7v-80.7h18.3c11.2,0,24.3,1.6,33.2,9.4
		c8.6,7.6,13.3,19.8,13.3,31.2C640.7,325.2,633.7,339.6,621.4,346.4z M617.1,291.6c-7.5-6.7-16.8-6.8-26.3-6.8v52.8h3.2
		c7.2,0,13.2-0.3,19.6-3.9c7.9-4.4,12.1-13.4,12.1-22.3C625.7,304.2,622.7,296.5,617.1,291.6z"/>
	<path class="st0" d="M704,341.3c-5.5,7.7-14.8,12-24.1,12c-9.1,0-18.6-4.1-24-11.6c-4-5.3-5-13-5-19.5v-51.3h15v51.3
		c0,9.4,3.1,17.1,14,17.1s14-7.7,14-17.1v-51.3h15v51.3C708.7,328.7,707.8,335.7,704,341.3z"/>
	<path class="st0" d="M827.7,284.9v66.8h-15v-66.8h-15v-14h45v14H827.7z"/>
	<path class="st0" d="M888.8,353.3c-23.1,0-42.2-18.6-42.2-41.8c0-23.5,18.9-42.2,42.2-42.2s42.3,18.7,42.3,42.2
		C931.1,334.7,912,353.3,888.8,353.3z M888.8,283.2c-15.5,0-27.3,13-27.3,28.2c0,15.1,12,27.9,27.3,27.9s27.3-12.9,27.3-27.9
		C916.1,296.2,904.3,283.2,888.8,283.2z"/>
	<path class="st0" d="M977.1,351.7l-21.4-30.9h-0.2v30.9h-15v-80.8h24.8c7.1,0,14,0.9,19.6,5.5c6,4.8,9.5,11.9,9.5,19.5
		c0,6.9-2.8,14.5-7.7,19.3c-4.1,3.9-8,5.3-13.4,6.7l21.9,29.8H977.1z M965.1,284.9h-9.6v24.6h9.6c8,0,14.4-3.9,14.4-12.4
		C979.5,288.8,972.8,284.9,965.1,284.9z"/>
	<path class="st0" d="M386.4,329.7c-5.5,5.9-11.3,9.6-19.7,9.6c-15,0-26.8-13.6-26.8-28.2c0-14.3,11.5-27.9,26.3-27.9
		c8.6,0,15.4,3.8,21,10l10.4-10.4c-7.8-8.6-18.9-13.6-30.9-13.6c-22.8,0-41.8,18.9-41.8,41.7c0,23,19,42.3,42.1,42.3
		c11.2,0,22.3-4.9,30-13L386.4,329.7z"/>
	<path class="st0" d="M780.5,329.7c-5.5,5.9-11.3,9.6-19.7,9.6c-15,0-26.8-13.6-26.8-28.2c0-14.3,11.5-27.9,26.3-27.9
		c8.6,0,15.4,3.8,21,10l10.4-10.4c-7.8-8.6-18.9-13.6-30.9-13.6c-22.8,0-41.8,18.9-41.8,41.7c0,23,19,42.3,42.1,42.3
		c11.2,0,22.3-4.9,30-13L780.5,329.7z"/>
</g>
</svg>
